<?xml version="1.0" standalone="no"?>
<!DOCTYPE svg PUBLIC "-//W3C//DTD SVG 20010904//EN"
 "http://www.w3.org/TR/2001/REC-SVG-20010904/DTD/svg10.dtd">
<svg version="1.0" xmlns="http://www.w3.org/2000/svg"
 width="736.000000pt" height="736.000000pt" viewBox="0 0 736.000000 736.000000"
 preserveAspectRatio="xMidYMid meet">

<g transform="translate(0.000000,736.000000) scale(0.100000,-0.100000)"
fill="#000000" stroke="none">
<path d="M3725 5790 c-190 -16 -341 -73 -564 -215 -131 -83 -220 -156 -367
-301 -113 -112 -179 -204 -299 -416 -45 -81 -114 -193 -152 -250 -219 -321
-339 -590 -393 -878 -18 -99 -35 -320 -35 -465 l0 -130 59 -115 c64 -128 80
-156 142 -250 101 -157 164 -335 164 -470 0 -36 5 -94 10 -130 5 -36 6 -68 2
-72 -5 -5 -35 -13 -67 -19 -33 -6 -98 -29 -145 -51 -148 -71 -303 -250 -425
-492 -103 -203 -140 -318 -180 -548 -7 -42 -16 -82 -20 -88 -11 -17 -14 -417
-4 -505 5 -44 14 -127 19 -185 5 -58 12 -129 16 -158 l6 -52 2171 0 2170 0 -6
203 c-7 226 -24 361 -60 487 -14 47 -31 112 -37 145 -13 63 -51 172 -75 216
-8 14 -23 50 -34 80 -12 29 -34 72 -49 95 -15 23 -40 61 -56 85 -15 24 -43 58
-62 76 l-34 32 25 25 c16 16 25 36 25 55 0 32 -6 48 -83 238 -50 123 -94 286
-102 378 -2 33 -9 85 -14 115 -12 71 -13 420 0 485 5 28 22 136 39 240 16 105
39 235 51 290 26 122 31 394 11 605 -7 74 -17 203 -22 285 -20 343 -73 667
-144 886 -52 158 -74 205 -152 320 -104 155 -264 293 -421 366 -64 29 -94 37
-177 43 -101 9 -214 22 -336 40 -74 11 -261 11 -395 0z m231 -683 c23 -79 11
-84 -14 -5 -11 35 -21 54 -21 43 -1 -23 31 -131 42 -141 4 -4 8 -32 8 -63 1
-31 4 -44 6 -28 2 15 7 27 11 27 8 -1 69 -106 143 -248 74 -141 162 -249 353
-431 71 -69 74 -88 9 -61 -27 10 -70 30 -97 44 -43 23 -62 26 -143 26 -68 0
-93 3 -93 13 0 6 -5 4 -11 -5 -8 -15 -24 -18 -79 -18 -66 0 -70 -1 -76 -26
-11 -42 5 -48 98 -37 227 29 276 26 396 -26 l99 -43 28 -59 c16 -32 26 -61 23
-65 -3 -3 -24 4 -46 15 -151 77 -392 86 -527 18 -68 -33 -132 -86 -172 -139
-81 -110 -84 -297 -7 -456 82 -170 236 -266 444 -279 75 -5 92 -2 148 20 35
15 85 41 110 60 73 52 73 52 59 20 -126 -281 -351 -523 -596 -640 -169 -80
-227 -107 -314 -143 -73 -31 -82 -32 -160 -26 -67 5 -98 14 -167 47 -157 75
-272 160 -405 301 -165 174 -211 275 -280 618 l-7 34 23 -17 c100 -71 186
-105 294 -113 140 -12 289 41 381 136 51 52 116 156 140 224 16 45 21 174 10
226 -31 134 -164 253 -336 299 -102 27 -225 34 -300 17 -33 -8 -60 -12 -60 -9
0 4 -8 -1 -17 -9 -26 -22 -136 -79 -141 -73 -9 8 69 233 85 246 8 7 49 14 93
15 43 2 90 6 105 10 35 9 102 -12 118 -36 6 -11 19 -20 27 -20 16 0 60 -26
129 -74 34 -23 44 -26 56 -16 8 7 15 23 15 37 0 20 -12 30 -72 59 -40 19 -80
38 -88 43 -21 12 -110 39 -140 43 -18 2 -24 8 -22 21 3 16 1 16 -17 -2 -14
-14 -34 -21 -58 -21 -21 0 -55 -3 -75 -6 -45 -8 -49 4 -12 41 14 14 23 29 20
34 -9 15 5 41 28 53 19 10 19 9 -3 -16 -39 -42 -19 -39 34 5 26 22 87 65 134
96 47 31 119 79 159 106 87 58 82 40 -17 -58 -39 -38 -71 -72 -71 -76 0 -3 51
43 112 104 131 127 151 141 322 231 138 72 208 120 271 185 21 23 47 41 57 41
10 0 18 8 19 18 1 19 6 5 35 -91z m-566 -231 c0 -2 -37 -27 -82 -57 -46 -29
-85 -56 -88 -59 -7 -9 -191 -125 -220 -139 -31 -15 -31 -15 110 98 63 51 137
100 185 122 77 37 95 43 95 35z m-747 -711 c-6 -20 -7 -35 -2 -35 17 0 9 -59
-15 -105 -14 -25 -28 -67 -31 -93 -4 -26 -10 -59 -15 -74 -5 -14 -6 -29 -2
-32 12 -13 13 -97 1 -112 -6 -8 -9 -17 -5 -21 3 -3 6 -1 6 5 0 7 4 12 9 12 17
0 44 -111 31 -124 -17 -16 -63 40 -57 70 2 13 -1 22 -7 21 -5 -1 -17 17 -25
41 -12 34 -13 46 -3 62 10 16 9 18 -4 13 -12 -4 -14 2 -12 29 1 18 -1 39 -5
45 -13 21 16 157 46 218 49 99 77 139 90 126 7 -7 7 -20 0 -46z m585 26 c156
-51 251 -123 300 -229 22 -49 24 -64 20 -160 -4 -104 -5 -110 -48 -192 -57
-109 -122 -175 -223 -225 -67 -33 -90 -39 -161 -43 -106 -6 -205 16 -285 63
-64 38 -131 113 -131 149 0 12 -5 88 -10 169 l-10 148 31 62 c17 34 47 80 68
102 20 22 29 34 22 28 -27 -24 -33 -13 -12 21 12 18 21 37 21 42 0 5 -16 -16
-35 -46 -63 -101 -70 -110 -82 -110 -12 0 -11 34 2 97 7 28 106 98 116 81 5
-7 15 -3 31 15 22 24 88 48 88 31 0 -4 -8 -17 -17 -28 -11 -13 -6 -11 12 5 17
15 39 32 50 38 29 17 176 6 253 -18z m1212 -142 c121 -29 212 -76 229 -117 5
-15 22 -70 37 -122 25 -90 26 -102 20 -234 -9 -172 -15 -187 -49 -120 -33 61
-35 51 -4 -14 25 -51 24 -64 -8 -103 -64 -78 -182 -143 -280 -154 -246 -27
-466 138 -525 394 -13 55 -8 173 10 242 13 49 77 119 153 167 77 49 118 62
202 67 37 2 69 6 71 8 7 6 94 -3 144 -14z m-1796 -108 c-4 -20 -7 -52 -5 -71
3 -40 -13 -90 -29 -90 -16 0 -12 63 6 88 10 15 11 22 3 22 -13 0 -6 62 13 107
11 28 12 28 16 4 2 -13 0 -40 -4 -60z m47 -14 c-10 -9 -11 -8 -5 6 3 10 9 15
12 12 3 -3 0 -11 -7 -18z m2303 -66 c38 -40 58 -126 45 -195 -39 -209 -211
-436 -330 -436 -27 0 -30 14 -11 59 19 46 27 51 35 19 4 -12 9 -19 12 -16 4 3
1 16 -5 28 -15 28 -7 70 29 145 28 61 67 102 122 131 28 14 39 34 19 34 -6 0
-29 -12 -51 -26 -23 -14 -43 -24 -45 -22 -4 4 1 22 42 173 36 131 38 135 77
135 24 0 41 -9 61 -29z m-2355 -138 l-1 -58 -14 34 c-16 35 -12 81 6 81 6 0
10 -26 9 -57z m1421 -1147 c0 -113 24 -425 34 -445 7 -14 16 -46 20 -71 10
-63 38 -150 49 -150 5 0 6 10 2 23 -4 12 -15 54 -25 92 -28 110 -20 111 91 8
47 -43 102 -92 124 -110 22 -17 38 -33 35 -35 -65 -50 -175 -146 -206 -179
-101 -107 -354 -338 -500 -456 -35 -28 -84 -59 -108 -68 -41 -16 -46 -16 -79
0 -74 35 -233 231 -317 390 -23 44 -62 117 -86 162 -25 45 -56 113 -70 150
-37 97 -59 133 -109 173 -29 22 -40 37 -33 41 11 7 93 30 273 75 33 9 68 23
78 31 26 25 32 9 19 -59 -11 -58 -10 -79 4 -66 3 3 10 36 16 74 15 87 -4 277
-34 347 -12 26 -18 50 -15 53 14 14 45 -19 55 -58 18 -67 35 -349 29 -455 -4
-73 -3 -93 6 -84 18 18 20 274 4 426 -8 72 -12 132 -10 134 1 2 27 -7 55 -21
129 -63 239 -81 329 -55 30 9 119 46 199 82 152 68 170 74 170 51z m49 -983
c-27 -33 -68 -73 -76 -73 -4 0 13 20 37 45 44 45 64 60 39 28z m-409 -371 c0
-8 -63 -42 -78 -42 -9 0 61 49 71 50 4 0 7 -4 7 -8z"/>
<path d="M3756 4993 c-6 -14 -5 -15 5 -6 7 7 10 15 7 18 -3 3 -9 -2 -12 -12z"/>
<path d="M3664 4888 l-19 -23 23 19 c21 18 27 26 19 26 -2 0 -12 -10 -23 -22z"/>
<path d="M3975 4780 c2 -41 8 -86 14 -100 10 -22 10 -21 4 10 -3 19 -10 64
-14 100 l-8 65 4 -75z"/>
<path d="M3554 4778 l-19 -23 23 19 c21 18 27 26 19 26 -2 0 -12 -10 -23 -22z"/>
<path d="M4001 4634 c0 -11 3 -14 6 -6 3 7 2 16 -1 19 -3 4 -6 -2 -5 -13z"/>
<path d="M3083 4558 c-15 -20 -25 -38 -20 -38 3 0 12 11 21 25 17 26 16 35 -1
13z"/>
<path d="M4060 4475 c0 -5 5 -17 10 -25 5 -8 10 -10 10 -5 0 6 -5 17 -10 25
-5 8 -10 11 -10 5z"/>
<path d="M2886 4268 l-18 -33 21 25 c18 22 26 40 18 40 -1 0 -11 -15 -21 -32z"/>
<path d="M3609 3371 c16 -29 71 -72 84 -64 6 4 -7 21 -34 45 -48 42 -65 48
-50 19z"/>
<path d="M3475 3040 c-16 -4 -54 -8 -84 -9 l-54 -1 49 -54 c27 -30 63 -74 79
-98 22 -31 42 -47 73 -57 71 -22 116 -9 220 65 87 62 103 84 64 84 -9 0 -44
13 -77 28 -40 19 -85 31 -135 36 -41 4 -82 8 -90 10 -8 2 -28 0 -45 -4z"/>
<path d="M2556 3963 c-6 -14 -5 -15 5 -6 7 7 10 15 7 18 -3 3 -9 -2 -12 -12z"/>
<path d="M3130 4086 c-25 -8 -58 -19 -74 -25 -22 -9 -34 -8 -59 4 -41 20 -42
20 -18 -19 12 -18 21 -43 21 -55 0 -27 7 -26 50 2 47 32 125 57 176 57 24 0
71 -12 111 -29 108 -47 94 -5 -17 50 -54 27 -129 33 -190 15z"/>
<path d="M3244 3941 c-70 -43 -95 -112 -74 -203 21 -87 74 -138 144 -138 52 0
110 56 121 117 16 95 -30 200 -102 229 -42 18 -52 18 -89 -5z"/>
<path d="M4126 3957 c-75 -23 -55 -35 66 -39 l113 -3 78 -48 c42 -27 81 -56
87 -65 6 -12 9 -13 10 -3 0 11 3 11 15 1 13 -11 18 -10 30 7 8 11 28 26 45 33
44 18 38 34 -12 27 -48 -6 -86 7 -155 54 -51 35 -52 35 -163 43 -47 4 -90 1
-114 -7z"/>
<path d="M4168 3839 c-14 -6 -39 -29 -54 -52 -25 -37 -29 -51 -29 -119 0 -86
15 -117 74 -152 28 -16 38 -17 71 -7 82 24 127 138 96 244 -25 86 -78 115
-158 86z"/>
<path d="M4620 3554 c0 -6 7 -19 16 -30 14 -18 14 -18 3 6 -14 31 -19 36 -19
24z"/>
<path d="M2010 2430 c0 -29 25 -96 47 -125 l22 -30 -19 55 c-22 65 -50 121
-50 100z"/>
<path d="M5315 2328 c-4 -10 -4 -26 0 -35 8 -17 8 -17 12 0 3 9 3 25 0 35 -4
16 -4 16 -12 0z"/>
</g>
</svg>
